<?xml version="1.0" standalone="no"?>
<!DOCTYPE svg PUBLIC "-//W3C//DTD SVG 20010904//EN"
 "http://www.w3.org/TR/2001/REC-SVG-20010904/DTD/svg10.dtd">
<svg version="1.0" xmlns="http://www.w3.org/2000/svg"
 width="16.000000pt" height="16.000000pt" viewBox="0 0 16.000000 16.000000"
 preserveAspectRatio="xMidYMid meet">
<metadata>
Created by potrace 1.11, written by Peter Selinger 2001-2013
</metadata>
<g transform="translate(0.000000,16.000000) scale(0.006154,-0.006154)"
fill="#000000" stroke="none">
<path d="M1138 2589 c-536 -62 -981 -451 -1114 -976 -22 -87 -24 -115 -24
-318 0 -203 2 -231 24 -318 68 -267 218 -507 426 -679 155 -128 315 -210 518
-266 91 -25 110 -26 317 -26 207 0 226 1 317 26 277 76 509 221 680 428 406
489 406 1181 0 1670 -275 332 -714 508 -1144 459z m524 -546 l3 -378 368 -3
367 -2 0 -360 0 -360 -367 -2 -368 -3 -3 -382 -2 -383 -360 0 -360 0 -2 383
-3 382 -367 3 -368 2 0 360 0 360 368 2 367 3 3 378 2 377 360 0 360 0 2 -377z"/>
</g>
</svg>
